<svg width="20" height="20" viewBox="0 0 20 20" fill="none" xmlns="http://www.w3.org/2000/svg">
<g clip-path="url(#clip0_7_414)">
<path d="M18.3375 11.5736L19.9789 4.35136C20.0974 3.8299 19.7011 3.33334 19.1663 3.33334H5.52806L5.20979 1.77743C5.13049 1.38962 4.78924 1.11111 4.39337 1.11111H0.833333C0.37309 1.11111 0 1.4842 0 1.94445V2.5C0 2.96025 0.37309 3.33334 0.833333 3.33334H3.25983L5.69899 15.2582C5.11545 15.5938 4.72222 16.223 4.72222 16.9445C4.72222 18.0183 5.59278 18.8889 6.66667 18.8889C7.74056 18.8889 8.61111 18.0183 8.61111 16.9445C8.61111 16.4002 8.38726 15.9085 8.02695 15.5556H15.3064C14.9461 15.9085 14.7222 16.4002 14.7222 16.9445C14.7222 18.0183 15.5928 18.8889 16.6667 18.8889C17.7406 18.8889 18.6111 18.0183 18.6111 16.9445C18.6111 16.1746 18.1636 15.5093 17.5146 15.1943L17.7062 14.3514C17.8247 13.8299 17.4283 13.3333 16.8936 13.3333H7.57351L7.34625 12.2222H17.5249C17.914 12.2222 18.2513 11.953 18.3375 11.5736Z" fill="#444444"/>
</g>
<defs>
<clipPath id="clip0_7_414">
<rect width="20" height="20" fill="white"/>
</clipPath>
</defs>
</svg>
