<svg width="20" height="18" viewBox="0 0 20 18" fill="none" xmlns="http://www.w3.org/2000/svg">
<g clip-path="url(#clip0_7_339)">
<path d="M17.9062 1.51019C15.6484 -0.388243 12.1602 -0.103087 10 2.09613C7.83984 -0.103087 4.35156 -0.392149 2.09375 1.51019C-0.843745 3.98285 -0.414058 8.0141 1.67969 10.1508L8.53125 17.1313C8.92187 17.5297 9.44531 17.7524 10 17.7524C10.5586 17.7524 11.0781 17.5336 11.4687 17.1352L18.3203 10.1547C20.4101 8.018 20.8476 3.98675 17.9062 1.51019ZM16.9844 8.83441L10.1328 15.8149C10.0391 15.9086 9.96094 15.9086 9.86719 15.8149L3.01563 8.83441C1.58985 7.38128 1.30078 4.63129 3.30078 2.94769C4.82031 1.67035 7.16406 1.86176 8.63281 3.35785L10 4.75238L11.3672 3.35785C12.8437 1.85394 15.1875 1.67035 16.6992 2.94379C18.6953 4.62738 18.3984 7.393 16.9844 8.83441Z" fill="#444444"/>
</g>
<defs>
<clipPath id="clip0_7_339">
<rect width="20" height="17.5048" fill="white" transform="translate(0 0.24762)"/>
</clipPath>
</defs>
</svg>
